<?xml version="1.0" encoding="UTF-8" standalone="no"?>
<svg xmlns="http://www.w3.org/2000/svg" viewBox="0 0 100 120">
  <!-- Clock and Calendar Icon -->
  <path d="M18,10 C12,10 8,14 8,20 L8,50 C8,56 12,60 18,60 L82,60 C88,60 92,56 92,50 L92,20 C92,14 88,10 82,10 L18,10 Z" fill="none" stroke="#7AAE9F" stroke-width="3" />
  
  <!-- Clock Face -->
  <circle cx="35" cy="35" r="15" fill="none" stroke="#7AAE9F" stroke-width="3" />
  <line x1="35" y1="35" x2="35" y2="25" stroke="#7AAE9F" stroke-width="3" stroke-linecap="round" />
  <line x1="35" y1="35" x2="42" y2="40" stroke="#7AAE9F" stroke-width="3" stroke-linecap="round" />
  
  <!-- Calendar Grid -->
  <line x1="65" y1="30" x2="85" y2="30" stroke="#7AAE9F" stroke-width="3" />
  <line x1="65" y1="40" x2="85" y2="40" stroke="#7AAE9F" stroke-width="3" />
  <line x1="75" y1="20" x2="75" y2="50" stroke="#7AAE9F" stroke-width="3" />
  
  <!-- Accent Color -->
  <path d="M90,30 L92,30 L92,50 C92,56 88,60 82,60 L70,60" fill="none" stroke="#F89B93" stroke-width="3" />
  
  <!-- Hands Icon -->
  <path d="M50,75 C45,65 35,65 30,75 C25,85 30,95 50,105 C70,95 75,85 70,75 C65,65 55,65 50,75 Z" fill="none" stroke="#7AAE9F" stroke-width="3" />
  
  <!-- Hands -->
  <path d="M15,90 C20,85 25,83 30,85" fill="none" stroke="#7AAE9F" stroke-width="3" stroke-linecap="round" />
  <path d="M85,90 C80,85 75,83 70,85" fill="none" stroke="#7AAE9F" stroke-width="3" stroke-linecap="round" />
  
  <!-- Text Rafad -->
  <path d="M20,115 C20,105 30,105 35,110 C40,115 30,120 20,115 M45,105 L45,120 M45,112 C45,108 55,108 55,112 C55,116 45,116 45,112 M55,105 L55,120 M65,105 L65,120 M65,105 C70,105 75,110 65,115 M80,105 L80,120 M75,105 L85,105" fill="none" stroke="#F89B93" stroke-width="2" stroke-linecap="round" stroke-linejoin="round" />
  
  <!-- Arabic رفد -->
  <text x="82" y="120" font-family="Arial" font-size="10" fill="#7AAE9F" text-anchor="end">رفد</text>
</svg>